<svg xmlns="http://www.w3.org/2000/svg" width="900" height="650" viewBox="0 0 900 650">
<rect width="100%" height="100%" fill="#f8fafc"/>
<text x="30" y="38" font-family="Arial" font-size="24" font-weight="bold">Rotas hospitalares otimizadas</text>
<polyline points="450.0,360.0 588.8,570.0 820.0,465.0 496.2,220.0 450.0,360.0" fill="none" stroke="#2563eb" stroke-width="4" stroke-linejoin="round"/>
<text x="710" y="70" fill="#2563eb" font-family="Arial" font-size="15">V1 - 26.6 km</text>
<polyline points="450.0,360.0 311.2,115.0 542.5,80.0 773.8,185.0 681.2,325.0 450.0,360.0" fill="none" stroke="#dc2626" stroke-width="4" stroke-linejoin="round"/>
<text x="710" y="94" fill="#dc2626" font-family="Arial" font-size="15">V2 - 28.1 km</text>
<polyline points="450.0,360.0 172.5,220.0 80.0,395.0 265.0,535.0 450.0,360.0" fill="none" stroke="#16a34a" stroke-width="4" stroke-linejoin="round"/>
<text x="710" y="118" fill="#16a34a" font-family="Arial" font-size="15">V3 - 24.7 km</text>
<rect x="441.0" y="351.0" width="18" height="18" fill="#111827"/>
<text x="463.0" y="348.0" font-family="Arial" font-size="14" font-weight="bold">Hospital Central</text>
<circle cx="588.8" cy="570.0" r="8" fill="#ef4444" stroke="#ffffff" stroke-width="2"/>
<text x="599.8" y="575.0" font-family="Arial" font-size="13">Paciente Carla (P3)</text>
<circle cx="820.0" cy="465.0" r="8" fill="#ef4444" stroke="#ffffff" stroke-width="2"/>
<text x="831.0" y="470.0" font-family="Arial" font-size="13">Pronto Atendimento (P3)</text>
<circle cx="496.2" cy="220.0" r="8" fill="#f59e0b" stroke="#ffffff" stroke-width="2"/>
<text x="507.2" y="225.0" font-family="Arial" font-size="13">Laboratorio Regional (P2)</text>
<circle cx="311.2" cy="115.0" r="8" fill="#ef4444" stroke="#ffffff" stroke-width="2"/>
<text x="322.2" y="120.0" font-family="Arial" font-size="13">Paciente Ana (P3)</text>
<circle cx="542.5" cy="80.0" r="8" fill="#ef4444" stroke="#ffffff" stroke-width="2"/>
<text x="553.5" y="85.0" font-family="Arial" font-size="13">UPA Norte (P3)</text>
<circle cx="773.8" cy="185.0" r="8" fill="#f59e0b" stroke="#ffffff" stroke-width="2"/>
<text x="784.8" y="190.0" font-family="Arial" font-size="13">Clinica Leste (P2)</text>
<circle cx="681.2" cy="325.0" r="8" fill="#94a3b8" stroke="#ffffff" stroke-width="2"/>
<text x="692.2" y="330.0" font-family="Arial" font-size="13">UBS Jardim (P1)</text>
<circle cx="172.5" cy="220.0" r="8" fill="#f59e0b" stroke="#ffffff" stroke-width="2"/>
<text x="183.5" y="225.0" font-family="Arial" font-size="13">Paciente Bruno (P2)</text>
<circle cx="80.0" cy="395.0" r="8" fill="#94a3b8" stroke="#ffffff" stroke-width="2"/>
<text x="91.0" y="400.0" font-family="Arial" font-size="13">Clinica Oeste (P1)</text>
<circle cx="265.0" cy="535.0" r="8" fill="#94a3b8" stroke="#ffffff" stroke-width="2"/>
<text x="276.0" y="540.0" font-family="Arial" font-size="13">UBS Sul (P1)</text>
</svg>